{
  "asset": {
    "version": "2.0",
    "generator": "THREE.GLTFExporter"
  },
  "scenes": [
    {
      "nodes": [
        5
      ],
      "name": "Scene"
    }
  ],
  "scene": 0,
  "nodes": [
    {
      "matrix": [
        1,
        0,
        0,
        0,
        0,
        3.422854177870249e-8,
        -0.9999999657714582,
        0,
        0,
        0.9999999657714582,
        3.422854177870249e-8,
        0,
        0,
        0,
        0,
        1
      ],
      "name": "Light_Orientation",
      "extras": {
        "name": "Light_Orientation"
      },
      "extensions": {
        "KHR_lights_punctual": {
          "light": 0
        }
      }
    },
    {
      "matrix": [
        -0.2908647428269262,
        -0.055189063886274425,
        -0.9551712048106182,
        0,
        0.5663932381446841,
        0.7946722584579202,
        -0.21839122503485697,
        0,
        0.7711008773539234,
        -0.6045247675783045,
        -0.19988344806390224,
        0,
        4.076245307922363,
        5.903861999511719,
        -1.0054539442062378,
        1
      ],
      "name": "Light",
      "extras": {
        "name": "Light"
      },
      "children": [
        0
      ]
    },
    {
      "matrix": [
        1,
        0,
        0,
        0,
        0,
        3.422854177870249e-8,
        -0.9999999657714582,
        0,
        0,
        0.9999999657714582,
        3.422854177870249e-8,
        0,
        0,
        0,
        0,
        1
      ],
      "name": "Camera_Orientation",
      "extras": {
        "name": "Camera_Orientation"
      },
      "camera": 0
    },
    {
      "matrix": [
        0.6859206581907298,
        0.14242480883734032,
        -0.7136021547718485,
        0,
        0.6515582555742938,
        0.3164504187956094,
        0.6894425251912928,
        0,
        0.3240134272840578,
        -0.9378562415300173,
        0.12426181745274079,
        0,
        10.845457077026367,
        6.651674747467041,
        10.615081787109375,
        1
      ],
      "name": "Camera",
      "extras": {
        "name": "Camera"
      },
      "children": [
        2
      ]
    },
    {
      "name": "Xyz_Cube",
      "extras": {
        "name": "Xyz Cube"
      },
      "mesh": 0
    },
    {
      "name": "cubeXYZ.gltf",
      "children": [
        1,
        3,
        4
      ]
    }
  ],
  "extensions": {
    "KHR_lights_punctual": {
      "lights": [
        {
          "name": "Light_Orientation",
          "color": [
            1,
            1,
            1
          ],
          "intensity": 0.3,
          "type": "point"
        }
      ]
    }
  },
  "cameras": [
    {
      "type": "perspective",
      "perspective": {
        "aspectRatio": 0.7130242825607064,
        "yfov": 0.39959652046304894,
        "zfar": 100,
        "znear": 0.10000000149011612
      },
      "name": "PerspectiveCamera"
    }
  ],
  "bufferViews": [
    {
      "buffer": 0,
      "byteOffset": 0,
      "byteLength": 3792,
      "target": 34962,
      "byteStride": 12
    },
    {
      "buffer": 0,
      "byteOffset": 3792,
      "byteLength": 3792,
      "target": 34962,
      "byteStride": 12
    },
    {
      "buffer": 0,
      "byteOffset": 7584,
      "byteLength": 816,
      "target": 34963
    }
  ],
  "buffers": [
    {
      "byteLength": 8400,
      "uri": "data:application/octet-stream;base64,"
    }
  ],
  "accessors": [
    {
      "bufferView": 0,
      "componentType": 5126,
      "count": 316,
      "max": [
        2.000000476837158,
        2.000000476837158,
        7.17741970534302e-18
      ],
      "min": [
        0,
        0,
        -2.000000476837158
      ],
      "type": "VEC3"
    },
    {
      "bufferView": 1,
      "componentType": 5126,
      "count": 316,
      "max": [
        1,
        1,
        1
      ],
      "min": [
        -1,
        -1,
        -1
      ],
      "type": "VEC3"
    },
    {
      "bufferView": 2,
      "componentType": 5123,
      "count": 408,
      "max": [
        315
      ],
      "min": [
        0
      ],
      "type": "SCALAR"
    }
  ],
  "materials": [
    {
      "pbrMetallicRoughness": {
        "metallicFactor": 0.5,
        "roughnessFactor": 0.5
      },
      "emissiveFactor": [
        0.6196078431372549,
        0.6196078431372549,
        0.6196078431372549
      ]
    }
  ],
  "meshes": [
    {
      "primitives": [
        {
          "mode": 4,
          "attributes": {
            "POSITION": 0,
            "NORMAL": 1
          },
          "indices": 2,
          "material": 0
        }
      ]
    }
  ],
  "extensionsUsed": [
    "KHR_lights_punctual"
  ]
}